<svg width="265" height="235" viewBox="0 0 265 235" fill="none" xmlns="http://www.w3.org/2000/svg">
<path fill-rule="evenodd" clip-rule="evenodd" d="M194.986 191.729C197.756 184.495 201.732 177.697 205.491 170.95C211.527 160.112 218.461 151.181 229.408 145.258C247.21 135.625 266.425 132.421 286.245 133.516C296.577 134.087 307.132 135.66 316.836 139.342C321.155 140.981 325.359 142.909 329.514 144.926C332.082 146.171 334.605 147.502 337.116 148.857C338.628 149.674 341.337 150.506 342.299 152.018C343.456 153.835 342.253 156.427 340.058 156.488C338.188 156.541 335.941 154.67 334.306 153.829C330.543 151.892 326.692 150.159 322.795 148.514C316.712 145.948 310.606 143.99 304.129 142.781C291.004 140.331 277.129 140.177 263.874 141.91C268.57 153.071 267.063 164.221 261.088 174.628C252.582 189.444 241.936 200.633 226.572 208.056C216.595 212.876 206.343 213.071 195.773 210.7C193.774 210.251 191.048 209.344 190.425 207.05C189.825 204.842 191.435 201.892 192.109 199.815C192.994 197.091 193.962 194.404 194.986 191.729Z" fill="#DDE3E9"/>
<path fill-rule="evenodd" clip-rule="evenodd" d="M292.261 53.5015C274.367 48.4113 256.518 43.4878 238.106 40.543C227.256 38.8082 216.321 37.849 205.413 36.5632C206.738 36.8263 208.059 37.1221 209.37 37.449C206.057 37.2068 202.413 38.095 199.026 38.0562C195.248 38.013 191.455 37.6573 187.705 37.2565C180.386 36.475 173.102 35.5772 165.752 35.0751C157.563 34.5163 149.334 34.3834 141.131 34.0324C134.169 33.7345 126.968 33.1658 119.991 33.6662C116.189 33.9387 112.225 33.9471 108.375 34.1646C107.087 34.2376 93.2698 33.6885 93.2842 33.6544C93.6004 32.9076 100.078 32.3586 101.052 32.2255C103.897 31.8357 106.747 31.689 109.607 31.532C107.009 29.8331 104.595 27.8661 102.541 25.5127C101.907 24.7864 97.1745 19.5673 97.549 18.6829C97.736 18.2412 107.117 27.0505 107.873 27.9815C108.488 28.7376 109.16 29.9501 109.887 30.5821C111.061 31.6031 110.817 31.2308 112.2 31.3887C114.733 31.6782 117.564 31.1372 120.119 31.1261C121.489 31.1062 126.021 31.5488 128.33 31.086C135.816 30.5488 144.263 31.4984 151.912 31.9193C148.872 30.0163 146.109 27.7866 143.566 25.2451C142.962 24.6421 137.195 19.4337 137.479 18.7617C137.8 18.0054 147.393 25.5056 148.161 26.2968C149.588 27.7663 150.782 29.6301 152.292 30.9897C153.949 32.4819 156.19 32.0533 158.49 32.1511C166.951 32.5112 175.341 33.2409 183.742 34.2204C183.57 19.0739 168.223 9.54582 156.465 3.559C147.991 -0.755393 138.529 -3.18317 129.163 -4.66258C116.663 -6.63718 103.735 -6.51169 91.0897 -5.92246C76.3556 -5.2359 61.9928 -1.78134 48.2732 3.91498C41.0975 6.89414 34.2893 10.8675 27.716 15.0485C24.5047 17.0908 21.598 19.3558 19.0642 22.2567C17.9226 23.5649 16.9013 24.9717 15.9573 26.4315C15.24 27.5406 13.0962 29.5141 12.9581 30.6281C11.7617 39.6948 12.9036 47.3789 17.825 55.0537C22.4833 62.319 29.142 68.4317 36.1742 73.2472C44.0051 78.609 52.4592 82.696 61.6982 84.8855C68.7472 86.5561 76.0127 87.3555 83.2163 88.1251C108.837 90.8629 138.299 89.0887 159.96 72.6265C166.972 67.2981 172.636 60.4853 177.282 52.994C178.377 51.2288 179.456 49.4594 180.374 47.592C180.993 46.3333 181.934 41.7297 182.883 41.0326C184.185 40.0768 188.81 41.1775 190.61 41.2854C204.292 42.1074 217.919 43.4346 231.505 45.1585C245.959 46.9929 260.22 49.6327 274.421 52.8195C280.461 54.1752 286.48 55.5535 292.477 57.0976C293.872 57.4563 297.908 59.4166 299.609 58.6267C300.685 58.1272 300.87 56.853 300.178 55.9892C298.974 54.4869 294.093 54.0226 292.261 53.5015Z" fill="#C1DEE2"/>
<path fill-rule="evenodd" clip-rule="evenodd" d="M218.356 91.6799C217.674 91.4443 206.538 92.5864 206.576 91.4671C206.593 90.9865 210.904 90.6448 211.497 90.623C213.841 90.5375 216.141 90.988 218.356 91.6799ZM228.688 72.5498C228.713 72.6186 231.037 73.9362 231.71 74.3652C233.143 75.2767 234.537 76.2439 235.896 77.2348C233.665 75.3871 231.507 73.7238 228.688 72.5498ZM156.065 136.126C155.147 137.143 152.959 136.49 154.22 135.29C155.241 134.322 155.144 134.288 155.124 133.024C155.107 131.997 154.826 130.896 154.734 129.861C154.54 127.667 154.5 125.49 154.727 123.298C155.214 118.598 156.49 114.054 158.381 109.754C161.681 102.25 165.884 94.7068 171.579 88.8478C180.635 79.5318 192.846 72.2285 204.916 68.0944C212.392 65.5338 219.85 64.279 227.438 67.125C231.231 68.547 234.812 70.7105 237.594 73.7634C238.321 74.5616 238.87 75.5988 239.637 76.3488C240.814 77.5021 240.434 77.2339 242.192 76.5753C244.112 75.8559 246.034 75.1437 247.959 74.4367C252.999 72.5863 258.093 70.7694 263.302 69.4816C265.015 69.0573 266.752 68.7461 268.503 68.5382C269.827 68.3804 274.879 67.369 276.191 68.4549C278.374 70.2616 274.907 70.8728 273.728 70.8859C272.695 70.8971 271.658 70.9499 270.628 71.042C268.035 71.2739 265.481 71.7703 262.965 72.4441C260.245 73.1721 257.57 74.088 254.904 74.9979C252.418 75.8469 249.947 76.7402 247.483 77.653C246.114 78.1598 244.747 78.6734 243.381 79.1871C242.914 79.3624 241.949 79.4265 242.326 79.949C239.412 80.9563 236.618 82.6667 233.866 84.069C230.496 85.787 227.131 87.5426 223.908 89.5404C221.583 90.9814 219.303 92.5051 217.132 94.184C215.863 95.1651 214.666 96.2197 213.515 97.3445C212.883 97.9626 210.19 100.054 210.16 100.935C210.173 100.556 213.557 98.9626 213.959 98.7096C215.567 97.6989 217.103 96.5943 218.635 95.4655C221.477 93.3708 224.414 91.4379 227.477 89.7041C227.775 90.247 226.245 92.4047 225.942 93.0536C225.262 94.5089 224.673 96.0089 224.206 97.5507C223.382 100.266 222.435 103.588 222.344 106.295C222.371 105.497 223.734 103.692 224.116 102.874C224.726 101.564 225.289 100.218 225.766 98.8496C226.207 97.5866 226.555 96.2969 226.878 94.9977C227.201 93.6977 227.292 91.3309 228.029 90.164C228.074 90.0935 228.746 90.1926 228.936 89.9171C229.128 89.6396 229.096 88.8239 229.148 88.7596C229.913 87.8099 232.057 87.2038 233.121 86.654C235.878 85.2275 238.654 83.841 241.423 82.4397C242.281 82.0055 242.878 81.4082 243.547 81.8416C244.26 82.3041 244.642 84.3814 244.88 85.1963C245.764 88.2221 245.988 91.2639 245.365 94.363C244.2 100.168 241.504 105.146 237.776 109.587C223.495 126.597 205.785 140.332 183.767 143.927C174.651 145.414 160.463 146.86 156.065 136.126Z" fill="#89C5CC"/>
</svg>
