<svg width="106" height="314" viewBox="0 0 106 314" fill="none" xmlns="http://www.w3.org/2000/svg">
<path fill-rule="evenodd" clip-rule="evenodd" d="M-24.9695 0.229664C-20.7474 -0.234687 -16.2413 -0.0707728 -12.3149 1.42948C-3.9659 4.62001 -1.59269 13.4993 -1.70718 20.7164C-1.83061 28.4843 -3.66301 36.9688 2.8973 43.2276C5.91294 46.1051 9.66417 48.3072 12.6253 51.2374C15.7894 54.3688 18.272 57.9517 20.1103 61.7992C23.4855 68.8664 25.1421 77.1772 22.0556 84.5907C19.3381 91.1178 12.501 97.0091 13.9783 104.431C15.5193 112.174 24.1905 118.093 29.6117 123.86C35.7471 130.386 41.396 138.727 42.324 147.286C43.2139 155.488 39.2479 163.784 33.1613 169.984C21.0003 182.373 2.72051 188.446 -15.7112 188.409C-23.5368 188.393 -32.3969 188.074 -39.1502 184.289C-41.2374 183.118 -42.3385 181.806 -43.5793 179.981C-44.6918 178.344 -46.1614 177.28 -47.8624 176.122C-51.5995 173.578 -54.2984 170.15 -56.0208 166.313C-62.7091 151.409 -57.3634 132.971 -48.0013 119.736C-45.7829 116.601 -43.9667 113.583 -45.0444 109.846C-46.169 105.944 -48.9331 102.426 -51.3779 99.072C-53.7937 95.7575 -56.5517 92.5956 -58.44 89.012C-60.4175 85.2579 -60.9744 81.3267 -60.625 77.2182C-59.9683 69.5005 -56.2675 62.3786 -51.028 56.1719C-45.9814 50.1935 -40.0558 44.4731 -40.0425 36.6396C-40.0279 28.3372 -46.1936 20.9516 -43.5669 12.5106C-42.4793 9.01532 -40.2948 5.42915 -36.7743 3.33368C-33.3981 1.32397 -28.9402 0.66638 -24.9695 0.229664Z" fill="#DDE3E9"/>
<path fill-rule="evenodd" clip-rule="evenodd" d="M-27.7282 13.5023C-27.6491 12.3873 -26.1798 11.7185 -25.0232 12.0095C-23.5007 12.3927 -23.53 13.6733 -23.5702 14.8142C-23.6934 18.3211 -23.1296 21.7293 -22.1931 25.1321C-20.2468 32.2067 -16.6498 38.7248 -13.8001 45.5206C-10.9529 52.3107 -9.61629 59.3212 -11.2866 66.5061C-12.8612 73.2804 -15.335 79.8792 -16.9464 86.6621C-18.3668 92.6403 -19.8781 98.9447 -17.7151 104.908C-15.6337 110.648 -11.0321 115.322 -7.7185 120.509C-0.859003 131.247 2.18418 143.159 2.59122 155.418C2.77985 161.11 2.60998 166.855 1.14304 172.438C0.29871 175.653 -0.835922 179.997 -3.89606 182.217C-5.30717 183.24 -7.72061 183.594 -8.90827 182.079C-10.0233 180.657 -9.04511 178.456 -8.69113 176.941C-7.15811 170.382 -6.8497 163.679 -7.21672 157.019C-7.57195 150.567 -8.41863 144.127 -10.674 137.966C-12.7673 132.248 -15.9474 127.113 -19.6903 122.111C-23.5041 117.014 -27.469 111.906 -29.0449 105.866C-30.6461 99.7322 -29.3453 93.4906 -27.606 87.4738C-25.7666 81.1096 -23.3573 74.928 -20.8666 68.7362C-18.4392 62.7029 -17.5789 56.9942 -18.9189 50.6796C-21.5659 38.2039 -28.6514 26.4942 -27.7282 13.5023Z" fill="#C5CFD6"/>
<path fill-rule="evenodd" clip-rule="evenodd" d="M86.6276 16.343C91.8667 17.7615 97.0701 20.0502 100.805 23.639C108.746 31.2707 106.309 42.805 101.926 51.2296C97.2069 60.2971 90.0564 69.4114 94.0873 79.8153C95.94 84.5982 99.0554 88.9299 100.813 93.7496C102.691 98.8998 103.501 104.264 103.398 109.638C103.207 119.51 100.262 130.043 92.2671 137.316C85.228 143.719 73.7181 147.459 71.0859 156.865C68.3398 166.677 75.0533 177.664 78.0341 186.96C81.4076 197.48 83.1405 209.907 79.193 220.392C75.4104 230.441 65.8618 238.341 55.0527 242.793C33.4555 251.689 8.38002 250.32 -13.276 241.702C-22.4704 238.043 -32.7039 233.547 -38.4177 225.959C-40.1836 223.613 -40.7058 221.559 -41.0906 218.838C-41.4356 216.398 -42.5373 214.464 -43.8562 212.312C-46.7541 207.586 -47.9101 202.304 -47.6767 196.995C-46.7682 176.377 -29.6253 157.204 -10.822 146.012C-6.36674 143.361 -2.45407 140.661 -1.52114 135.77C-0.546825 130.664 -1.72597 125.244 -2.6269 120.168C-3.51687 115.15 -4.89906 110.153 -5.00995 105.065C-5.1256 99.7352 -3.46604 94.8583 -0.636116 90.1945C4.68012 81.4342 13.2259 74.7897 23.0425 69.936C32.4979 65.2608 42.8352 61.2976 47.4629 52.1018C52.3682 42.3558 49.4648 30.8119 57.5239 22.1182C60.861 18.5183 65.5417 15.3218 70.916 14.4979C76.0701 13.7077 81.7003 15.0089 86.6276 16.343Z" fill="#DDE3E9"/>
<path fill-rule="evenodd" clip-rule="evenodd" d="M75.9257 32.4594C76.6691 31.1849 78.782 31.0868 79.9684 31.9712C81.53 33.1355 80.7486 34.6281 80.0359 35.9513C77.8456 40.0188 76.5184 44.292 75.6314 48.7335C73.7863 57.9675 74.2014 67.3205 73.5783 76.6499C72.9557 85.9714 70.433 94.8442 64.2831 102.513C58.4848 109.743 51.7347 116.346 45.8882 123.57C40.7352 129.936 35.2853 136.643 34.3429 144.671C33.4349 152.399 36.1035 160.054 36.9628 167.708C38.7417 183.554 35.3606 198.992 28.6865 213.603C25.5868 220.387 22.0362 227.065 17.0592 232.945C14.1938 236.331 10.3288 240.909 5.44595 242.086C3.19428 242.629 0.157968 241.914 -0.350379 239.574C-0.828469 237.379 1.60239 235.249 2.90139 233.633C8.52535 226.636 12.7974 218.895 16.2524 210.889C19.5994 203.134 22.3638 195.162 23.3135 186.857C24.1946 179.151 23.4617 171.619 21.991 163.982C20.4926 156.199 18.8236 148.332 20.4991 140.489C22.2001 132.523 27.3665 125.791 32.916 119.528C38.7854 112.904 45.2166 106.762 51.7492 100.646C58.1151 94.6869 62.4542 88.3751 64.5668 80.3193C68.741 64.4037 67.2642 47.3089 75.9257 32.4594Z" fill="#C5CFD6"/>
<path fill-rule="evenodd" clip-rule="evenodd" d="M-75.1436 72.3082C-66.3476 72.3082 -58.6145 76.4302 -53.2859 82.2796C-47.0482 89.127 -45.7884 97.4892 -43.2555 105.65C-41.9952 109.712 -39.8274 113.743 -36.0286 116.503C-32.5734 119.012 -28.187 119.514 -24.0513 120.74C-15.7859 123.191 -9.11173 129.093 -6.47592 136.295C-3.26028 145.08 -6.66625 153.939 -6.07977 162.842C-5.54144 171.019 3.57711 176.12 10.9136 180.039C18.1476 183.904 24.6647 187.522 26.8435 195.052C29.154 203.037 29.9291 211.951 26.729 219.839C21.4009 232.974 5.80792 238.758 -9.2589 239.655C-22.9326 240.469 -40.1256 239.191 -50.3945 230.416C-56.5391 225.165 -58.7644 217.821 -58.4883 210.514C-58.3168 205.971 -57.2988 201.469 -55.9826 197.079C-55.0497 193.967 -53.7894 190.868 -53.4303 187.653C-52.4759 179.097 -61.4196 177.454 -69.0327 175.105C-78.7067 172.12 -85.4794 166.481 -90.1889 158.626C-94.5747 151.311 -96.4149 143.101 -93.7857 135.048C-92.4429 130.936 -90.0074 127.205 -86.7043 124.032C-85.2503 122.635 -83.201 121.47 -81.8886 120.003C-80.6637 118.633 -80.9303 116.857 -81.3525 115.252C-83.3045 107.839 -89.3861 101.7 -91.561 94.2993C-93.5246 87.6195 -92.3638 79.3062 -85.4561 74.9968C-82.4718 73.1348 -78.7914 72.3287 -75.1436 72.3082Z" fill="#C5CFD6"/>
<path fill-rule="evenodd" clip-rule="evenodd" d="M-63.158 91.6249C-53.8352 100.405 -51.3011 112.317 -50.5574 123.862C-50.1408 130.337 -50.5744 137.165 -48.4229 143.445C-46.5821 148.82 -42.2665 152.929 -37.818 156.812C-28.8635 164.629 -18.8771 172.576 -16.258 183.889C-14.7212 190.528 -15.7585 197.385 -13.635 203.951C-11.7042 209.919 -8.30457 215.783 -4.16951 220.823C-0.840172 224.881 3.49741 227.988 7.13685 231.772C8.24718 232.927 9.83775 234.627 9.37946 236.257C8.84322 238.166 6.09238 238.771 4.14066 238.471C-0.409874 237.771 -4.24031 233.93 -7.21564 231.137C-11.5664 227.053 -15.2635 222.661 -18.2684 217.734C-21.6044 212.262 -24.2904 206.456 -25.4381 200.317C-26.6291 193.948 -26.0363 187.311 -28.7559 181.199C-33.3322 170.915 -44.4322 164.846 -52.4575 156.83C-62.4565 146.842 -60.9653 134.411 -59.9412 122.125C-59.3786 115.373 -58.8193 107.748 -62.6783 101.583C-64.1514 99.2301 -67.4357 97.0361 -68.0691 94.3613C-68.6492 91.9107 -65.4829 89.4342 -63.158 91.6249Z" fill="#AFB9C5"/>
<path fill-rule="evenodd" clip-rule="evenodd" d="M-53.6171 237.224C-53.6171 287.436 -44.4378 313.745 4.02219 313.745C52.4822 313.745 61.6615 287.436 61.6615 237.224H-53.6171Z" fill="#89C5CC"/>
</svg>
