<svg width="166" height="240" viewBox="0 0 166 240" fill="none" xmlns="http://www.w3.org/2000/svg">
<path fill-rule="evenodd" clip-rule="evenodd" d="M107.453 239.171C103.15 240.107 98.3996 240.036 94.0171 239.958C70.5134 239.64 47.4332 228.558 32.412 210.85C19.6244 195.776 16.1082 177.033 13.5819 158.087C13.3314 156.206 13.224 154.337 13.0827 152.452C13.0523 152.047 13.007 151.687 12.9586 151.347C11.9651 150.462 11.4439 149.431 12.032 148.298C9.84334 143.528 7.99189 138.637 6.40323 133.593C1.7275 118.744 -3.02879 103.614 -0.0988621 88C0.585638 96.5923 2.02551 105.379 3.74755 113.83C3.84659 114.315 3.95356 114.796 4.06493 115.276C4.07637 115.326 4.08693 115.377 4.09838 115.427C4.70805 118.015 5.50039 120.526 6.46398 122.997C6.4741 123.024 6.48379 123.05 6.49435 123.077C6.62157 123.402 6.75671 123.726 6.89008 124.049C7.16609 124.719 7.44957 125.387 7.75022 126.052C7.85191 126.279 7.94963 126.507 8.04339 126.738C9.44629 130.162 10.0388 134.02 11.2955 137.563C11.5962 138.369 11.9105 139.172 12.2398 139.97C12.2591 140.017 12.2789 140.063 12.2987 140.11C13.1888 142.259 14.1722 144.381 15.2119 146.481C15.7771 146.904 16.0791 147.953 16.5664 148.907C16.6672 149.095 17.4552 150.348 17.6898 151.07C18.3021 152.249 18.9122 153.43 19.5289 154.607C19.5104 154.6 19.4919 154.593 19.4734 154.587C20.0906 155.717 20.7095 156.844 21.3236 157.965C21.4587 158.211 21.5952 158.458 21.7312 158.705C21.9517 159.098 22.1723 159.491 22.3924 159.883C24.4511 163.553 26.6341 167.148 28.9011 170.7C29.7101 171.967 31.643 173.784 32.0137 175.207C32.0273 175.26 32.0304 175.309 32.0388 175.36C36.9579 182.241 42.621 188.587 49.4123 193.616C48.5913 192.732 46.8464 189.733 46.3851 189.139C44.9734 187.321 43.4406 185.629 41.9022 183.916C39.147 180.847 36.457 177.681 34.0667 174.334C29.6956 168.211 25.9245 161.768 22.3598 155.194C22.3259 155.156 22.2889 155.119 22.2568 155.08C20.4652 152.881 19.3374 149.556 18.0477 147.04C23.1517 149.395 28.7954 150.928 34.0337 153.019C39.2575 155.103 44.3391 157.424 49.245 160.149C55.7656 163.771 62.5296 167.861 68.6906 172.488C75.7508 176.85 81.6837 182.853 86.9207 189.153C93.1169 196.607 98.7954 204.126 102.307 213.176C104.032 217.624 105.389 222.261 106.194 226.953C106.229 227.157 106.274 227.379 106.323 227.609C107.146 229.23 107.882 230.886 108.5 232.581C109.481 235.269 111.797 238.227 107.453 239.171Z" fill="#69A1AC"/>
<path fill-rule="evenodd" clip-rule="evenodd" d="M161.622 138.435C157.531 142.835 151.282 145.184 145.48 146.523C122.819 151.755 99.5806 148.281 78.2926 140.026C66.6279 135.503 55.5936 128.86 45.5331 121.615C39.726 117.433 34.3178 112.706 29.9596 107.067C27.0184 103.261 24.6502 99.1342 22.6827 94.7681C20.2849 89.4471 18.0893 83.9604 16.3813 78.3824C15.7088 76.1859 11.6736 64.6382 15.3468 63.5789C15.258 63.2917 15.1888 63.0145 15.1538 62.7596C4.16762 52.0204 -4.23256 38.4012 -12.0931 25.4649C-18.9326 14.2077 -25.3574 2.74626 -30.5969 -9.32344C-37.4949 -25.2139 -43.3984 -41.597 -48.2432 -58.2128C-49.2842 -61.7838 -50.2612 -65.3714 -51.2193 -68.9667C-52.0358 -72.0333 -52.8537 -75.0996 -53.6689 -78.1666C-54.5819 -81.6038 -56.1134 -85.4501 -56.3564 -89.0206C-56.5684 -92.1299 -53.8633 -92.2764 -53.0596 -89.319C-52.0888 -85.7477 -51.278 -82.1319 -50.2875 -78.5623C-48.9724 -73.8249 -47.651 -69.0891 -46.3118 -64.3587C-37.0049 -31.499 -23.3161 -0.165655 -4.75798 28.6188C2.75216 40.2672 10.7735 51.0836 20.2274 61.2802C28.5395 70.2455 37.9777 78.6036 47.4154 86.2386C56.5882 93.6578 65.9935 100.803 76.4423 106.471C84.9215 111.07 93.9194 114.705 103.047 117.912C114.64 121.986 126.178 125.909 138.268 128.3C144.553 129.542 150.884 130.492 157.189 131.621C158.323 131.824 159.529 131.997 160.64 132.279C164.347 133.219 163.849 136.039 161.622 138.435Z" fill="#C1DEE2"/>
<path fill-rule="evenodd" clip-rule="evenodd" d="M49.4166 56C58.8732 56 67.2881 54.7693 76.0013 51.0054C83.5225 47.7569 90.3768 43.4564 97.0316 38.7744C106.392 32.1896 113.766 24.5256 118.927 14.371C122.01 8.30464 124.272 -0.279514 122.201 -6.89622C119.762 -14.6894 113.064 -21.1889 104.244 -19.8157C98.789 -18.9674 93.7888 -15.3512 89.6431 -11.9477C84.6837 -7.87585 80.7137 -2.97985 77.4357 2.45786C72.0884 11.3279 68.9462 21.3555 64.4037 30.6243C62.2483 35.0234 60.1653 39.4539 57.5837 43.6347C56.3056 45.705 54.945 47.7556 53.0061 49.2942C51.9688 50.117 47.5951 51.5415 49.2677 53.3897C24.7445 53.0671 3.0195 34.2039 -1.68814 10.8551C-2.12661 8.67884 -2.4693 6.48489 -2.83133 4.29526C-3.05979 2.91258 -2.96753 -2.18624 -4.20166 -3.06942C-6.92344 -5.01792 -5.77937 0.901211 -5.6625 1.75338C-5.36067 3.95594 -5.03862 6.15678 -4.70076 8.35373C-2.86252 20.3035 2.44922 31.4123 11.3074 39.9345C21.4371 49.6795 35.1044 56 49.4166 56Z" fill="#89C5CC"/>
</svg>
