<svg width="106" height="153" viewBox="0 0 106 153" fill="none" xmlns="http://www.w3.org/2000/svg">
<path fill-rule="evenodd" clip-rule="evenodd" d="M80.603 26C83.4345 26 86.2574 26.0569 89.0853 26.204C91.2409 26.3168 94.535 25.8698 96.359 27.2138C98.2542 28.6097 98.1236 31.4674 97.8276 33.4854C96.2626 44.1572 92.4429 53.6202 84.4522 61.1809C72.1487 72.8231 58.044 78.7385 41.3537 81.3726C29.6296 83.223 18.8064 80.6537 10.1758 72.3137C3.86995 84.0213 -0.914032 96.977 -3.3144 110.053C-4.49859 116.505 -4.86014 122.88 -4.65194 129.449C-4.51788 133.658 -4.28582 137.856 -3.83489 142.044C-3.63939 143.864 -2.71164 146.619 -3.42408 148.339C-4.25992 150.358 -7.07872 150.554 -8.34415 148.831C-9.39733 147.398 -9.20386 144.583 -9.42018 142.887C-9.77869 140.069 -10.1108 137.25 -10.3484 134.419C-10.7344 129.837 -11.0198 125.242 -10.9989 120.643C-10.9507 110.309 -8.65391 99.9354 -5.51215 90.1262C0.514923 71.3075 10.2941 54.5826 25.5032 41.4602C34.8549 33.3911 45.5578 30.1234 57.7008 28.3692C65.2609 27.2772 72.9444 26 80.603 26Z" fill="#89C5CC"/>
<path fill-rule="evenodd" clip-rule="evenodd" d="M-15.2254 1.33415C-14.692 0.94624 -13.4264 0.808691 -12.8376 0.692486C-10.3904 0.21005 -7.86938 0 -5.37446 0C2.31874 0.0115189 10.1369 0.766681 17.7024 2.07373C22.5057 2.90343 28.3126 5.69573 33.0908 4.17931C41.4152 1.53709 49.8284 1.66685 57.7262 5.43893C64.9468 8.88815 70.4284 15.439 73.6272 22.5173C74.1098 23.5859 76.0679 27.5185 76.6222 30.1696C76.8591 30.7116 77.0867 31.2574 77.292 31.8113C77.8745 33.384 78.3968 34.9845 78.8822 36.5879C79.0896 37.272 79.6112 38.7823 78.9918 39.0743C79.9814 40.9007 80.8587 42.7831 81.5894 44.7264C83.7144 50.378 86.0378 56.5776 86.7845 62.5677C87.0612 64.7858 87.0716 67.0167 86.8148 69.2392C86.6878 70.3375 86.7403 72.5464 85.9957 73.3815C84.4152 75.1537 83.6038 72.6728 83.7819 71.4911C85.1425 62.4847 82.5153 54.0272 79.4017 45.5611C77.3884 40.0866 74.0803 35.0783 70.3744 30.5426C67.3753 26.8711 64.158 23.9799 60.0468 21.5457C55.0193 18.5691 49.6443 16.1626 44.3187 13.7488C40.816 12.1605 37.3092 10.615 33.7088 9.24659C32.9081 8.94202 31.6485 8.16145 30.7608 8.1584C28.8836 8.15162 26.2234 9.53693 24.4101 10.0522C18.446 11.7479 12.4056 13.9188 6.24172 14.7848C2.28812 15.3407 -1.41599 14.715 -5.11348 13.3978C-5.49137 13.2636 -6.12467 12.9177 -6.90063 12.4238C-9.64574 11.3678 -12.2426 10.0387 -14.5037 8.12147C-15.8065 7.01668 -16.9885 5.58902 -18.0665 4.2823C-18.3891 3.89168 -18.5318 3.4438 -18.5366 3.01828C-18.7809 2.89055 -18.9431 2.74149 -18.9796 2.56735C-19.2486 1.2813 -16.7958 1.25759 -15.2254 1.33415Z" fill="#89C5CC"/>
<path fill-rule="evenodd" clip-rule="evenodd" d="M36.6353 100C67.0866 100 87.5956 124.841 97.2926 150.659C100.948 160.391 101.805 171.077 103.214 181.296C103.666 184.575 103.498 189.572 104.813 192.493C105.291 193.553 106.385 193.933 105.862 195.377C105.545 196.251 104.924 196.786 103.99 196.96C102.075 197.317 99.3667 195.205 97.7245 194.372C84.1033 187.457 75.1539 176.766 67.8531 163.686C63.3275 155.578 58.7356 147.162 56.0472 138.261C54.405 132.824 53.449 127.097 52.8875 121.456C52.6666 119.235 52.4526 116.961 52.4656 114.726C52.4786 112.508 53.4979 111.336 54.2305 109.406C44.0697 105.513 32.6009 104.452 22.3085 108.487C12.789 112.218 4.88134 119.428 0.453491 128.487C-0.696983 130.842 -1.58414 133.326 -2.23045 135.859C-2.65334 137.519 -2.67378 139.672 -3.45772 141.172C-5.35871 144.809 -9.35818 142.377 -8.9742 138.992C-7.90352 129.547 -2.56557 120.066 4.25698 113.499C12.8618 105.218 24.5256 100 36.6353 100Z" fill="#89C5CC"/>
</svg>
