<svg width="197" height="168" viewBox="0 0 197 168" fill="none" xmlns="http://www.w3.org/2000/svg">
<path fill-rule="evenodd" clip-rule="evenodd" d="M106.111 0.687039C109.677 -0.0889082 113.615 -0.0295209 117.247 0.0344894C136.728 0.298354 155.857 9.4849 168.307 24.1635C178.906 36.6598 181.82 52.1961 183.914 67.9014C184.122 69.4608 184.211 71.0102 184.328 72.5727C184.353 72.9081 184.391 73.2071 184.431 73.4888C185.254 74.2221 185.686 75.077 185.199 76.0161C187.013 79.9702 188.547 84.0245 189.864 88.2062C193.739 100.515 197.682 113.057 195.253 126C194.686 118.877 193.492 111.594 192.065 104.589C191.983 104.186 191.894 103.787 191.802 103.39C191.793 103.348 191.784 103.306 191.774 103.264C191.269 101.119 190.612 99.0378 189.814 96.9895C189.805 96.9671 189.797 96.945 189.788 96.923C189.683 96.6534 189.571 96.3853 189.46 96.1171C189.232 95.562 188.997 95.008 188.748 94.4568C188.663 94.269 188.582 94.0795 188.505 93.8885C187.342 91.05 186.851 87.8516 185.809 84.9146C185.56 84.2468 185.299 83.5814 185.027 82.9196C185.01 82.8809 184.994 82.8421 184.978 82.8034C184.24 81.0225 183.425 79.2632 182.563 77.5225C182.095 77.1719 181.844 76.302 181.44 75.5115C181.357 75.3558 180.704 74.317 180.509 73.7185C180.002 72.7406 179.496 71.7623 178.985 70.7861C179 70.7918 179.016 70.7975 179.031 70.8032C178.52 69.8658 178.007 68.9323 177.498 68.0028C177.386 67.7986 177.272 67.5942 177.16 67.3893C176.977 67.0632 176.794 66.7375 176.612 66.4125C174.905 63.3709 173.096 60.3902 171.217 57.4464C170.547 56.3959 168.945 54.8895 168.637 53.71C168.626 53.6659 168.623 53.6253 168.617 53.583C164.539 47.8793 159.846 42.6184 154.217 38.4499C154.897 39.1825 156.344 41.6686 156.726 42.1607C157.896 43.6678 159.166 45.0707 160.441 46.4907C162.725 49.0344 164.955 51.6588 166.936 54.434C170.559 59.5093 173.684 64.8506 176.639 70.2993C176.667 70.3313 176.697 70.3615 176.724 70.3943C178.209 72.2175 179.144 74.9731 180.213 77.0588C175.982 75.1072 171.305 73.8359 166.963 72.103C162.633 70.3754 158.422 68.4515 154.355 66.1923C148.951 63.1899 143.345 59.7998 138.238 55.9635C132.387 52.348 127.469 47.3715 123.129 42.1494C117.993 35.9706 113.287 29.7378 110.376 22.2354C108.946 18.5488 107.821 14.7046 107.154 10.8156C107.125 10.646 107.088 10.4621 107.048 10.2712C106.365 8.92801 105.755 7.55463 105.243 6.14961C104.43 3.92134 102.511 1.4701 106.111 0.687039Z" fill="#69A1AC"/>
<path fill-rule="evenodd" clip-rule="evenodd" d="M4.13118 90.096C3.34413 92.6912 4.0007 94.975 7.10602 94.3313C8.03694 94.1384 8.99861 93.8295 9.91818 93.5692C15.0292 92.123 20.0937 90.5341 25.2307 89.1801C35.1136 86.5755 45.1426 85.3145 55.2679 84.1461C63.2399 83.2263 71.271 82.672 79.2668 83.0253C89.1202 83.4607 98.734 85.3765 108.274 87.5812C118.091 89.8508 128.171 92.6594 137.634 96.3296C148.396 100.504 158.316 105.66 168.158 111.622C192.48 126.356 214.1 144.757 233.011 165.887C235.733 168.929 238.444 171.982 241.151 175.038C243.19 177.341 245.112 179.743 247.137 182.055C248.813 183.969 250.776 182.878 249.485 180.636C248.003 178.061 245.46 175.748 243.527 173.516C241.801 171.524 240.074 169.534 238.348 167.543C236.324 165.21 234.289 162.888 232.211 160.603C222.545 149.969 212.175 139.892 201.243 130.544C192.94 123.443 183.975 117.227 174.775 111.313C164.202 104.517 152.978 97.4079 140.876 93.3851C140.757 93.2077 140.605 93.026 140.434 92.8441C142.786 90.721 135.57 83.5729 134.268 82.1787C130.963 78.6384 127.327 75.343 123.601 72.2447C120.543 69.7023 117.274 67.4841 113.695 65.7126C108.392 63.0884 102.638 61.5259 96.7861 60.5138C86.6473 58.7608 76.0025 57.8111 65.66 58.6704C46.7849 60.2386 28.1988 66.0804 13.2148 78.2059C9.37842 81.3104 5.57663 85.3294 4.13118 90.096Z" fill="#C1DEE2"/>
<path fill-rule="evenodd" clip-rule="evenodd" d="M154.034 110C146.19 110 139.211 111.02 131.983 114.14C125.745 116.833 120.06 120.398 114.54 124.279C106.775 129.738 100.66 136.091 96.3787 144.508C93.8212 149.537 91.9451 156.653 93.6626 162.138C95.6859 168.598 101.241 173.986 108.558 172.847C113.082 172.144 117.229 169.146 120.668 166.325C124.782 162.95 128.075 158.891 130.794 154.384C135.229 147.031 137.835 138.718 141.603 131.035C143.391 127.389 145.119 123.716 147.26 120.25C148.32 118.534 149.449 116.834 151.057 115.559C151.917 114.877 155.545 113.696 154.158 112.164C174.499 112.431 192.519 128.068 196.423 147.423C196.787 149.227 197.071 151.045 197.372 152.861C197.561 154.007 197.485 158.233 198.508 158.965C200.766 160.581 199.817 155.674 199.72 154.968C199.47 153.142 199.203 151.317 198.922 149.496C197.398 139.591 192.992 130.382 185.644 123.317C177.242 115.239 165.906 110 154.034 110Z" fill="#89C5CC"/>
</svg>
